<?xml version="1.0" encoding="UTF-8" standalone="no"?>
<!DOCTYPE svg PUBLIC "-//W3C//DTD SVG 1.1//EN"
 "http://www.w3.org/Graphics/SVG/1.1/DTD/svg11.dtd">
<!-- Generated by graphviz version 2.38.0 (20140413.2041)
 -->
<!-- Title: G Pages: 1 -->
<svg width="818pt" height="373pt"
 viewBox="0.00 0.00 818.13 373.26" xmlns="http://www.w3.org/2000/svg" xmlns:xlink="http://www.w3.org/1999/xlink">
<g id="graph0" class="graph" transform="scale(1 1) rotate(0) translate(4 369.262)">
<title>G</title><style>.edge>path:hover{stroke-width:8}</style>
<polygon fill="white" stroke="none" points="-4,4 -4,-369.262 814.128,-369.262 814.128,4 -4,4"/>
<!-- geopandas -->
<g id="node1" class="node"><title>geopandas</title><style>.edge>path:hover{stroke-width:8}</style>
<ellipse fill="#b09f3a" stroke="black" cx="546.128" cy="-174.853" rx="37.8497" ry="18"/>
<text text-anchor="middle" x="546.128" y="-172.353" font-family="Helvetica,sans-Serif" font-size="10.00" fill="#000000">geopandas</text>
</g>
<!-- geofeat_features -->
<g id="node2" class="node"><title>geofeat_features</title><style>.edge>path:hover{stroke-width:8}</style>
<ellipse fill="#883a3a" stroke="black" cx="407.128" cy="-21.2132" rx="36.5405" ry="21.4286"/>
<text text-anchor="middle" x="407.128" y="-24.2132" font-family="Helvetica,sans-Serif" font-size="10.00" fill="#ffffff">geofeat.</text>
<text text-anchor="middle" x="407.128" y="-13.2132" font-family="Helvetica,sans-Serif" font-size="10.00" fill="#ffffff">features</text>
</g>
<!-- geopandas&#45;&gt;geofeat_features -->
<g id="edge3" class="edge"><title>geopandas&#45;&gt;geofeat_features</title><style>.edge>path:hover{stroke-width:8}</style>
<path fill="none" stroke="black" d="M571.027,-160.932C598.023,-145.458 634.453,-119.294 612.128,-100.64"/>
<path fill="none" stroke="black" d="M612.128,-98.6396C565.483,-59.6633 497.044,-39.5509 452.289,-29.9492"/>
<polygon fill="#b09f3a" stroke="black" points="452.782,-26.4776 442.282,-27.8928 451.373,-33.3343 452.782,-26.4776"/>
</g>
<!-- mlbase_db -->
<g id="node3" class="node"><title>mlbase_db</title><style>.edge>path:hover{stroke-width:8}</style>
<ellipse fill="#47c28d" stroke="black" cx="53.1283" cy="-250.066" rx="36.4942" ry="18"/>
<text text-anchor="middle" x="53.1283" y="-247.566" font-family="Helvetica,sans-Serif" font-size="10.00" fill="#000000">mlbase.db</text>
</g>
<!-- geofeat_catchment_area -->
<g id="node6" class="node"><title>geofeat_catchment_area</title><style>.edge>path:hover{stroke-width:8}</style>
<ellipse fill="#8a2e2e" stroke="black" cx="407.128" cy="-99.6396" rx="60.623" ry="21.4286"/>
<text text-anchor="middle" x="407.128" y="-102.64" font-family="Helvetica,sans-Serif" font-size="10.00" fill="#ffffff">geofeat.</text>
<text text-anchor="middle" x="407.128" y="-91.6396" font-family="Helvetica,sans-Serif" font-size="10.00" fill="#ffffff">catchment_area</text>
</g>
<!-- mlbase_db&#45;&gt;geofeat_catchment_area -->
<g id="edge8" class="edge"><title>mlbase_db&#45;&gt;geofeat_catchment_area</title><style>.edge>path:hover{stroke-width:8}</style>
<path fill="none" stroke="black" d="M252.128,-173.853C263.493,-167.394 264.725,-163.243 276.128,-156.853 301.858,-142.433 332.023,-129.256 356.917,-119.29"/>
<polygon fill="#47c28d" stroke="black" points="358.513,-122.423 366.53,-115.496 355.943,-115.912 358.513,-122.423"/>
</g>
<!-- geofeat_pathfinder -->
<g id="node9" class="node"><title>geofeat_pathfinder</title><style>.edge>path:hover{stroke-width:8}</style>
<ellipse fill="#8a2e2e" stroke="black" cx="286.128" cy="-99.6396" rx="41.9398" ry="21.4286"/>
<text text-anchor="middle" x="286.128" y="-102.64" font-family="Helvetica,sans-Serif" font-size="10.00" fill="#ffffff">geofeat.</text>
<text text-anchor="middle" x="286.128" y="-91.6396" font-family="Helvetica,sans-Serif" font-size="10.00" fill="#ffffff">pathfinder</text>
</g>
<!-- mlbase_db&#45;&gt;geofeat_pathfinder -->
<g id="edge9" class="edge"><title>mlbase_db&#45;&gt;geofeat_pathfinder</title><style>.edge>path:hover{stroke-width:8}</style>
<path fill="none" stroke="black" d="M78.6576,-237.116C84.9739,-234.293 91.7575,-231.374 98.1283,-228.853 165.434,-202.218 189.197,-211.618 252.128,-175.853"/>
<path fill="none" stroke="black" d="M252.128,-173.853C267.62,-165.048 276.111,-146.929 280.733,-130.92"/>
<polygon fill="#47c28d" stroke="black" points="284.227,-131.373 283.246,-120.824 277.434,-129.682 284.227,-131.373"/>
</g>
<!-- shapely -->
<g id="node4" class="node"><title>shapely</title><style>.edge>path:hover{stroke-width:8}</style>
<ellipse fill="#db2fc2" stroke="black" cx="410.128" cy="-250.066" rx="29.3664" ry="18"/>
<text text-anchor="middle" x="410.128" y="-247.566" font-family="Helvetica,sans-Serif" font-size="10.00" fill="#ffffff">shapely</text>
</g>
<!-- shapely&#45;&gt;geofeat_catchment_area -->
<g id="edge19" class="edge"><title>shapely&#45;&gt;geofeat_catchment_area</title><style>.edge>path:hover{stroke-width:8}</style>
<path fill="none" stroke="black" d="M404.128,-173.853C398.989,-160.45 398.963,-144.639 400.541,-131.146"/>
<polygon fill="#db2fc2" stroke="black" points="404.054,-131.323 402.084,-120.913 397.132,-130.279 404.054,-131.323"/>
</g>
<!-- shapely&#45;&gt;geofeat_pathfinder -->
<g id="edge20" class="edge"><title>shapely&#45;&gt;geofeat_pathfinder</title><style>.edge>path:hover{stroke-width:8}</style>
<path fill="none" stroke="black" d="M411.389,-231.896C411.893,-216.665 411.114,-194.072 404.128,-175.853"/>
<path fill="none" stroke="black" d="M404.128,-173.853C397.588,-156.796 357.442,-134.278 325.769,-118.742"/>
<polygon fill="#db2fc2" stroke="black" points="327.205,-115.549 316.677,-114.357 324.164,-121.853 327.205,-115.549"/>
</g>
<!-- mlbase -->
<g id="node5" class="node"><title>mlbase</title><style>.edge>path:hover{stroke-width:8}</style>
<ellipse fill="#47c28d" stroke="black" cx="334.128" cy="-250.066" rx="28.0137" ry="18"/>
<text text-anchor="middle" x="334.128" y="-247.566" font-family="Helvetica,sans-Serif" font-size="10.00" fill="#000000">mlbase</text>
</g>
<!-- mlbase&#45;&gt;geofeat_catchment_area -->
<g id="edge6" class="edge"><title>mlbase&#45;&gt;geofeat_catchment_area</title><style>.edge>path:hover{stroke-width:8}</style>
<path fill="none" stroke="black" d="M366.128,-173.853C367.341,-157.563 375.356,-141.498 383.983,-128.586"/>
<polygon fill="#47c28d" stroke="black" points="387.017,-130.36 389.977,-120.186 381.319,-126.293 387.017,-130.36"/>
</g>
<!-- mlbase&#45;&gt;geofeat_pathfinder -->
<g id="edge7" class="edge"><title>mlbase&#45;&gt;geofeat_pathfinder</title><style>.edge>path:hover{stroke-width:8}</style>
<path fill="none" stroke="black" d="M344.735,-233.326C353.431,-219.035 364.553,-197.018 366.128,-175.853"/>
<path fill="none" stroke="black" d="M366.128,-173.853C367.95,-149.375 347.167,-130.84 326.331,-118.544"/>
<polygon fill="#47c28d" stroke="black" points="327.911,-115.418 317.464,-113.657 324.533,-121.549 327.911,-115.418"/>
</g>
<!-- geofeat_catchment_area&#45;&gt;geofeat_features -->
<g id="edge1" class="edge"><title>geofeat_catchment_area&#45;&gt;geofeat_features</title><style>.edge>path:hover{stroke-width:8}</style>
<path fill="none" stroke="black" d="M407.128,-78.1587C407.128,-70.3001 407.128,-61.1558 407.128,-52.5655"/>
<polygon fill="#8a2e2e" stroke="black" points="410.628,-52.4856 407.128,-42.4856 403.628,-52.4856 410.628,-52.4856"/>
</g>
<!-- geopy_distance -->
<g id="node7" class="node"><title>geopy_distance</title><style>.edge>path:hover{stroke-width:8}</style>
<ellipse fill="#6ab34c" stroke="black" cx="689.128" cy="-174.853" rx="48.7185" ry="18"/>
<text text-anchor="middle" x="689.128" y="-172.353" font-family="Helvetica,sans-Serif" font-size="10.00" fill="#000000">geopy.distance</text>
</g>
<!-- geopy_distance&#45;&gt;geofeat_features -->
<g id="edge5" class="edge"><title>geopy_distance&#45;&gt;geofeat_features</title><style>.edge>path:hover{stroke-width:8}</style>
<path fill="none" stroke="black" d="M673.168,-157.513C657.973,-142.242 634.21,-119.091 612.128,-100.64"/>
</g>
<!-- shapely_geometry -->
<g id="node8" class="node"><title>shapely_geometry</title><style>.edge>path:hover{stroke-width:8}</style>
<ellipse fill="#c040ad" stroke="black" cx="247.128" cy="-250.066" rx="40.1111" ry="21.4286"/>
<text text-anchor="middle" x="247.128" y="-253.066" font-family="Helvetica,sans-Serif" font-size="10.00" fill="#ffffff">shapely.</text>
<text text-anchor="middle" x="247.128" y="-242.066" font-family="Helvetica,sans-Serif" font-size="10.00" fill="#ffffff">geometry</text>
</g>
<!-- shapely_geometry&#45;&gt;geofeat_catchment_area -->
<g id="edge21" class="edge"><title>shapely_geometry&#45;&gt;geofeat_catchment_area</title><style>.edge>path:hover{stroke-width:8}</style>
<path fill="none" stroke="black" d="M328.128,-173.853C339.271,-154.913 356.831,-137.934 372.569,-125.107"/>
<polygon fill="#c040ad" stroke="black" points="374.899,-127.726 380.588,-118.789 370.567,-122.228 374.899,-127.726"/>
</g>
<!-- shapely_geometry&#45;&gt;geofeat_pathfinder -->
<g id="edge22" class="edge"><title>shapely_geometry&#45;&gt;geofeat_pathfinder</title><style>.edge>path:hover{stroke-width:8}</style>
<path fill="none" stroke="black" d="M271.746,-233.07C290.056,-219.884 314.191,-199.542 328.128,-175.853"/>
<path fill="none" stroke="black" d="M328.128,-173.853C337.533,-157.868 327.373,-139.794 314.695,-125.604"/>
<polygon fill="#c040ad" stroke="black" points="316.966,-122.917 307.5,-118.157 311.932,-127.781 316.966,-122.917"/>
</g>
<!-- geofeat_pathfinder&#45;&gt;geofeat_features -->
<g id="edge2" class="edge"><title>geofeat_pathfinder&#45;&gt;geofeat_features</title><style>.edge>path:hover{stroke-width:8}</style>
<path fill="none" stroke="black" d="M311.494,-82.6181C329.763,-71.079 354.573,-55.4085 374.344,-42.9202"/>
<polygon fill="#8a2e2e" stroke="black" points="376.447,-45.732 383.033,-37.4326 372.709,-39.8137 376.447,-45.732"/>
</g>
<!-- shapely_wkt -->
<g id="node10" class="node"><title>shapely_wkt</title><style>.edge>path:hover{stroke-width:8}</style>
<ellipse fill="#c040ad" stroke="black" cx="148.128" cy="-250.066" rx="40.7358" ry="18"/>
<text text-anchor="middle" x="148.128" y="-247.566" font-family="Helvetica,sans-Serif" font-size="10.00" fill="#ffffff">shapely.wkt</text>
</g>
<!-- shapely_wkt&#45;&gt;geofeat_catchment_area -->
<g id="edge23" class="edge"><title>shapely_wkt&#45;&gt;geofeat_catchment_area</title><style>.edge>path:hover{stroke-width:8}</style>
<path fill="none" stroke="black" d="M290.128,-173.853C313.212,-154.14 342.1,-136.008 365.396,-122.72"/>
<polygon fill="#c040ad" stroke="black" points="367.345,-125.64 374.351,-117.692 363.918,-119.536 367.345,-125.64"/>
</g>
<!-- shapely_wkt&#45;&gt;geofeat_pathfinder -->
<g id="edge24" class="edge"><title>shapely_wkt&#45;&gt;geofeat_pathfinder</title><style>.edge>path:hover{stroke-width:8}</style>
<path fill="none" stroke="black" d="M176.966,-236.991C201.302,-226.412 236.768,-210.073 266.128,-192.853 277.404,-186.24 280.188,-184.342 290.128,-175.853"/>
<path fill="none" stroke="black" d="M290.128,-173.853C302.277,-163.477 301.553,-145.678 297.657,-130.228"/>
<polygon fill="#c040ad" stroke="black" points="300.969,-129.088 294.742,-120.516 294.264,-131.1 300.969,-129.088"/>
</g>
<!-- pandas -->
<g id="node11" class="node"><title>pandas</title><style>.edge>path:hover{stroke-width:8}</style>
<ellipse fill="#5419e6" stroke="black" cx="601.128" cy="-250.066" rx="28.0137" ry="18"/>
<text text-anchor="middle" x="601.128" y="-247.566" font-family="Helvetica,sans-Serif" font-size="10.00" fill="#ffffff">pandas</text>
</g>
<!-- pandas&#45;&gt;geopandas -->
<g id="edge18" class="edge"><title>pandas&#45;&gt;geopandas</title><style>.edge>path:hover{stroke-width:8}</style>
<path fill="none" stroke="black" d="M589.464,-233.539C582.177,-223.839 572.64,-211.144 564.368,-200.133"/>
<polygon fill="#5419e6" stroke="black" points="567.152,-198.011 558.347,-192.118 561.555,-202.216 567.152,-198.011"/>
</g>
<!-- pandas&#45;&gt;geofeat_features -->
<g id="edge16" class="edge"><title>pandas&#45;&gt;geofeat_features</title><style>.edge>path:hover{stroke-width:8}</style>
<path fill="none" stroke="black" d="M612.128,-173.853C596.19,-145.484 637.098,-121.504 612.128,-100.64"/>
</g>
<!-- pandas&#45;&gt;geofeat_catchment_area -->
<g id="edge15" class="edge"><title>pandas&#45;&gt;geofeat_catchment_area</title><style>.edge>path:hover{stroke-width:8}</style>
<path fill="none" stroke="black" d="M612.128,-173.853C585.946,-127.251 526.118,-109.796 477.815,-103.505"/>
<polygon fill="#5419e6" stroke="black" points="478.037,-100.007 467.699,-102.326 477.226,-106.96 478.037,-100.007"/>
</g>
<!-- pandas&#45;&gt;geofeat_pathfinder -->
<g id="edge17" class="edge"><title>pandas&#45;&gt;geofeat_pathfinder</title><style>.edge>path:hover{stroke-width:8}</style>
<path fill="none" stroke="black" d="M609.226,-232.58C615.636,-216.997 622.013,-193.446 612.128,-175.853"/>
<path fill="none" stroke="black" d="M612.128,-173.853C563.138,-86.6557 612.942,-193.79 337.128,-120.853 333.557,-119.909 329.898,-118.786 326.259,-117.562"/>
<polygon fill="#5419e6" stroke="black" points="327.342,-114.232 316.748,-114.134 324.969,-120.818 327.342,-114.232"/>
</g>
<!-- geopy -->
<g id="node12" class="node"><title>geopy</title><style>.edge>path:hover{stroke-width:8}</style>
<ellipse fill="#5fcc33" stroke="black" cx="783.128" cy="-174.853" rx="27" ry="18"/>
<text text-anchor="middle" x="783.128" y="-172.353" font-family="Helvetica,sans-Serif" font-size="10.00" fill="#000000">geopy</text>
</g>
<!-- geopy&#45;&gt;geofeat_features -->
<g id="edge4" class="edge"><title>geopy&#45;&gt;geofeat_features</title><style>.edge>path:hover{stroke-width:8}</style>
<path fill="none" stroke="black" d="M761.884,-163.62C757.053,-161.349 751.929,-158.985 747.128,-156.853 687.727,-130.477 662.003,-142.314 612.128,-100.64"/>
</g>
<!-- mlbase_db_engine -->
<g id="node13" class="node"><title>mlbase_db_engine</title><style>.edge>path:hover{stroke-width:8}</style>
<ellipse fill="#47c28d" stroke="black" cx="228.128" cy="-336.271" rx="36.125" ry="28.9828"/>
<text text-anchor="middle" x="228.128" y="-344.771" font-family="Helvetica,sans-Serif" font-size="10.00" fill="#000000">mlbase.</text>
<text text-anchor="middle" x="228.128" y="-333.771" font-family="Helvetica,sans-Serif" font-size="10.00" fill="#000000">db.</text>
<text text-anchor="middle" x="228.128" y="-322.771" font-family="Helvetica,sans-Serif" font-size="10.00" fill="#000000">engine</text>
</g>
<!-- mlbase_db_engine&#45;&gt;geofeat_catchment_area -->
<g id="edge10" class="edge"><title>mlbase_db_engine&#45;&gt;geofeat_catchment_area</title><style>.edge>path:hover{stroke-width:8}</style>
<path fill="none" stroke="black" d="M263.499,-330.17C319.848,-321.24 425.922,-300.865 448.128,-271.279 479.911,-228.935 449.654,-165.451 426.938,-129.038"/>
<polygon fill="#47c28d" stroke="black" points="429.726,-126.904 421.367,-120.393 423.842,-130.695 429.726,-126.904"/>
</g>
<!-- mlbase_db_engine&#45;&gt;geofeat_pathfinder -->
<g id="edge11" class="edge"><title>mlbase_db_engine&#45;&gt;geofeat_pathfinder</title><style>.edge>path:hover{stroke-width:8}</style>
<path fill="none" stroke="black" d="M192.393,-332.254C119.213,-324.574 -37.1579,-299.609 8.12833,-228.853 58.4418,-150.242 170.539,-119.149 235.984,-107.373"/>
<polygon fill="#47c28d" stroke="black" points="236.805,-110.784 246.07,-105.645 235.623,-103.884 236.805,-110.784"/>
</g>
<!-- numpy -->
<g id="node14" class="node"><title>numpy</title><style>.edge>path:hover{stroke-width:8}</style>
<ellipse fill="#268cd9" stroke="black" cx="528.128" cy="-250.066" rx="27.1572" ry="18"/>
<text text-anchor="middle" x="528.128" y="-247.566" font-family="Helvetica,sans-Serif" font-size="10.00" fill="#ffffff">numpy</text>
</g>
<!-- numpy&#45;&gt;geopandas -->
<g id="edge14" class="edge"><title>numpy&#45;&gt;geopandas</title><style>.edge>path:hover{stroke-width:8}</style>
<path fill="none" stroke="black" d="M532.303,-232.085C534.446,-223.37 537.107,-212.547 539.52,-202.73"/>
<polygon fill="#268cd9" stroke="black" points="542.925,-203.541 541.914,-192.995 536.127,-201.87 542.925,-203.541"/>
</g>
<!-- numpy&#45;&gt;geofeat_catchment_area -->
<g id="edge12" class="edge"><title>numpy&#45;&gt;geofeat_catchment_area</title><style>.edge>path:hover{stroke-width:8}</style>
<path fill="none" stroke="black" d="M480.128,-173.853C464.18,-158.757 446.802,-141.369 433.004,-127.327"/>
<polygon fill="#268cd9" stroke="black" points="435.235,-124.603 425.739,-119.906 430.233,-129.5 435.235,-124.603"/>
</g>
<!-- numpy&#45;&gt;geofeat_pathfinder -->
<g id="edge13" class="edge"><title>numpy&#45;&gt;geofeat_pathfinder</title><style>.edge>path:hover{stroke-width:8}</style>
<path fill="none" stroke="black" d="M520.236,-232.653C511.945,-216.684 497.679,-192.465 480.128,-175.853"/>
<path fill="none" stroke="black" d="M480.128,-173.853C430.902,-127.26 400.416,-145.119 337.128,-120.853 334.06,-119.676 330.893,-118.45 327.709,-117.208"/>
<polygon fill="#268cd9" stroke="black" points="328.776,-113.867 318.188,-113.473 326.219,-120.384 328.776,-113.867"/>
</g>
</g>
</svg>
